<?xml version="1.0" encoding="utf-8"?>
<!-- Generator: Adobe Illustrator 27.5.0, SVG Export Plug-In . SVG Version: 6.00 Build 0)  -->
<svg version="1.1" xmlns="http://www.w3.org/2000/svg" xmlns:xlink="http://www.w3.org/1999/xlink" x="0px" y="0px"
	 viewBox="0 0 800 800" style="enable-background:new 0 0 800 800;" xml:space="preserve">
<g id="Background">
	<rect x="1" y="1" style="fill:#103754;" width="800" height="800"/>
	<g>
		<g>
			<path style="fill:#FFFFFF;" d="M287.024,775.285v-0.256c-0.349,0.398-0.692,0.723-1.031,0.973
				c-0.338,0.25-0.706,0.441-1.102,0.57c-0.395,0.131-0.827,0.195-1.296,0.195c-0.621,0-1.196-0.131-1.725-0.395
				c-0.528-0.262-0.986-0.639-1.372-1.125c-0.387-0.488-0.68-1.06-0.879-1.719c-0.199-0.66-0.299-1.371-0.299-2.137
				c0-1.621,0.396-2.887,1.188-3.791s1.833-1.358,3.125-1.358c0.747,0,1.377,0.129,1.89,0.383c0.513,0.258,1.013,0.652,1.501,1.183
				v-3.828c0-0.531,0.105-0.934,0.318-1.205c0.211-0.273,0.514-0.408,0.907-0.408c0.393,0,0.694,0.125,0.907,0.375
				s0.318,0.617,0.318,1.106v11.436c0,0.494-0.113,0.865-0.342,1.111c-0.228,0.246-0.522,0.371-0.883,0.371
				c-0.354,0-0.647-0.129-0.879-0.385C287.139,776.125,287.024,775.76,287.024,775.285z M281.923,771.477
				c0,0.703,0.109,1.301,0.328,1.795c0.219,0.494,0.518,0.867,0.897,1.115c0.38,0.252,0.795,0.377,1.244,0.377
				c0.456,0,0.872-0.119,1.25-0.357c0.376-0.236,0.677-0.602,0.902-1.09c0.225-0.492,0.337-1.106,0.337-1.84
				c0-0.69-0.112-1.283-0.337-1.781c-0.225-0.496-0.528-0.877-0.912-1.141c-0.383-0.262-0.803-0.393-1.258-0.393
				c-0.475,0-0.899,0.135-1.273,0.404c-0.374,0.268-0.663,0.654-0.869,1.158C282.026,770.229,281.923,770.813,281.923,771.477z"/>
			<path style="fill:#FFFFFF;" d="M298.457,772.133h-5.071c0.006,0.588,0.124,1.107,0.357,1.557c0.23,0.451,0.538,0.789,0.921,1.017
				c0.383,0.229,0.806,0.34,1.268,0.34c0.31,0,0.593-0.035,0.85-0.107c0.257-0.074,0.505-0.186,0.746-0.342
				c0.241-0.154,0.462-0.322,0.665-0.5c0.202-0.178,0.464-0.418,0.788-0.723c0.133-0.113,0.323-0.17,0.571-0.17
				c0.266,0,0.48,0.074,0.645,0.219c0.165,0.146,0.248,0.352,0.248,0.617c0,0.234-0.093,0.508-0.275,0.822
				c-0.185,0.313-0.462,0.613-0.832,0.902c-0.372,0.287-0.835,0.525-1.397,0.717c-0.559,0.189-1.204,0.285-1.933,0.285
				c-1.664,0-2.96-0.477-3.884-1.426c-0.924-0.949-1.386-2.238-1.386-3.865c0-0.766,0.113-1.477,0.341-2.131
				c0.228-0.656,0.561-1.219,0.997-1.688c0.437-0.469,0.975-0.826,1.615-1.078c0.639-0.25,1.349-0.373,2.128-0.373
				c1.013,0,1.882,0.211,2.606,0.641c0.726,0.426,1.27,0.978,1.63,1.656c0.36,0.678,0.542,1.369,0.542,2.07
				c0,0.652-0.187,1.074-0.56,1.27C299.662,772.035,299.136,772.133,298.457,772.133z M293.386,770.66h4.702
				c-0.063-0.887-0.303-1.551-0.717-1.99c-0.415-0.439-0.96-0.66-1.638-0.66c-0.646,0-1.177,0.223-1.591,0.67
				C293.727,769.125,293.476,769.787,293.386,770.66z"/>
			<path style="fill:#FFFFFF;" d="M310.272,773.375c0,0.717-0.173,1.33-0.522,1.84c-0.348,0.51-0.862,0.897-1.544,1.158
				c-0.68,0.264-1.508,0.395-2.483,0.395c-0.931,0-1.728-0.143-2.393-0.428c-0.665-0.285-1.156-0.642-1.472-1.068
				c-0.317-0.428-0.475-0.855-0.475-1.287c0-0.285,0.101-0.529,0.304-0.73c0.202-0.203,0.459-0.305,0.769-0.305
				c0.272,0,0.48,0.066,0.626,0.199c0.146,0.133,0.286,0.32,0.418,0.561c0.266,0.463,0.585,0.807,0.956,1.035
				c0.37,0.229,0.874,0.342,1.515,0.342c0.519,0,0.945-0.115,1.277-0.346c0.332-0.232,0.498-0.496,0.498-0.795
				c0-0.455-0.172-0.787-0.518-0.996c-0.345-0.209-0.914-0.408-1.705-0.6c-0.893-0.221-1.619-0.453-2.18-0.697
				c-0.561-0.242-1.008-0.564-1.344-0.963c-0.335-0.4-0.503-0.891-0.503-1.473c0-0.519,0.155-1.01,0.465-1.473
				c0.311-0.461,0.768-0.83,1.374-1.105c0.604-0.277,1.333-0.414,2.188-0.414c0.671,0,1.275,0.068,1.809,0.209
				c0.536,0.139,0.983,0.326,1.34,0.56c0.358,0.234,0.63,0.494,0.816,0.777c0.186,0.285,0.28,0.564,0.28,0.838
				c0,0.297-0.1,0.541-0.298,0.73c-0.199,0.19-0.482,0.285-0.851,0.285c-0.266,0-0.492-0.076-0.679-0.229
				c-0.186-0.152-0.4-0.379-0.641-0.684c-0.196-0.252-0.426-0.455-0.693-0.607c-0.266-0.152-0.627-0.229-1.083-0.229
				c-0.469,0-0.857,0.1-1.168,0.301c-0.31,0.197-0.465,0.445-0.465,0.744c0,0.273,0.114,0.496,0.341,0.67
				c0.229,0.174,0.535,0.318,0.922,0.432c0.386,0.113,0.917,0.252,1.596,0.418c0.803,0.197,1.46,0.432,1.97,0.703
				c0.509,0.272,0.896,0.594,1.16,0.965C310.142,772.479,310.272,772.9,310.272,773.375z"/>
			<path style="fill:#FFFFFF;" d="M312.921,765.019c-0.361,0-0.669-0.111-0.926-0.334c-0.256-0.221-0.385-0.533-0.385-0.939
				c0-0.369,0.131-0.67,0.394-0.908s0.569-0.355,0.917-0.355c0.336,0,0.633,0.107,0.893,0.322c0.26,0.217,0.39,0.529,0.39,0.941
				c0,0.398-0.127,0.711-0.381,0.935C313.57,764.906,313.27,765.019,312.921,765.019z M314.204,767.697v7.492
				c0,0.519-0.124,0.914-0.371,1.18c-0.248,0.266-0.56,0.398-0.94,0.398c-0.38,0-0.689-0.137-0.926-0.408
				c-0.238-0.273-0.356-0.662-0.356-1.17v-7.418c0-0.512,0.118-0.898,0.356-1.158c0.237-0.26,0.546-0.389,0.926-0.389
				c0.38,0,0.693,0.129,0.94,0.389C314.081,766.873,314.204,767.234,314.204,767.697z"/>
			<path style="fill:#FFFFFF;" d="M325.563,768.125v7.531c0,0.861-0.093,1.602-0.277,2.223c-0.182,0.619-0.477,1.133-0.883,1.539
				c-0.405,0.404-0.935,0.705-1.59,0.9c-0.655,0.197-1.471,0.295-2.446,0.295c-0.893,0-1.69-0.125-2.394-0.375
				c-0.702-0.25-1.243-0.572-1.624-0.969c-0.379-0.394-0.57-0.803-0.57-1.221c0-0.316,0.108-0.574,0.324-0.773
				c0.215-0.199,0.475-0.299,0.778-0.299c0.38,0,0.712,0.168,0.997,0.502c0.139,0.172,0.283,0.346,0.432,0.519
				c0.149,0.174,0.314,0.322,0.494,0.447c0.181,0.121,0.397,0.213,0.65,0.273c0.253,0.058,0.545,0.09,0.874,0.09
				c0.671,0,1.192-0.092,1.563-0.279s0.63-0.449,0.779-0.785c0.149-0.334,0.236-0.693,0.261-1.076c0.025-0.385,0.044-1,0.057-1.85
				c-0.399,0.559-0.859,0.984-1.382,1.275c-0.522,0.291-1.145,0.435-1.866,0.435c-0.868,0-1.626-0.221-2.275-0.664
				c-0.648-0.443-1.147-1.064-1.495-1.861c-0.349-0.799-0.522-1.719-0.522-2.764c0-0.779,0.105-1.482,0.317-2.109
				c0.213-0.627,0.515-1.156,0.907-1.586c0.392-0.432,0.845-0.756,1.358-0.975c0.513-0.217,1.076-0.326,1.691-0.326
				c0.734,0,1.371,0.141,1.909,0.422c0.538,0.283,1.038,0.725,1.5,1.326v-0.354c0-0.449,0.11-0.797,0.332-1.045
				c0.222-0.246,0.507-0.369,0.855-0.369c0.5,0,0.832,0.164,0.996,0.488C325.48,767.039,325.563,767.51,325.563,768.125z
				 M318.05,771.41c0,1.051,0.229,1.846,0.688,2.385c0.459,0.539,1.053,0.807,1.781,0.807c0.43,0,0.837-0.115,1.22-0.346
				c0.384-0.233,0.695-0.58,0.936-1.045c0.24-0.467,0.361-1.031,0.361-1.695c0-1.057-0.232-1.881-0.698-2.469
				c-0.466-0.59-1.078-0.885-1.838-0.885c-0.741,0-1.334,0.283-1.78,0.846C318.272,769.57,318.05,770.373,318.05,771.41z"/>
			<path style="fill:#FFFFFF;" d="M329.684,767.658v0.315c0.455-0.602,0.954-1.043,1.496-1.326c0.542-0.281,1.163-0.422,1.866-0.422
				c0.684,0,1.295,0.148,1.834,0.447c0.538,0.297,0.941,0.719,1.206,1.262c0.172,0.316,0.282,0.66,0.332,1.025
				c0.051,0.369,0.077,0.836,0.077,1.406v4.824c0,0.519-0.119,0.914-0.357,1.18c-0.237,0.266-0.546,0.398-0.926,0.398
				c-0.387,0-0.7-0.137-0.94-0.408c-0.241-0.273-0.361-0.662-0.361-1.17v-4.32c0-0.855-0.119-1.51-0.357-1.961
				c-0.238-0.453-0.71-0.68-1.42-0.68c-0.461,0-0.883,0.137-1.263,0.412c-0.38,0.277-0.659,0.656-0.836,1.137
				c-0.126,0.387-0.19,1.108-0.19,2.164v3.248c0,0.525-0.122,0.922-0.365,1.183c-0.244,0.264-0.559,0.395-0.945,0.395
				c-0.375,0-0.681-0.137-0.922-0.408c-0.24-0.273-0.361-0.662-0.361-1.17v-7.492c0-0.494,0.107-0.863,0.323-1.108
				c0.215-0.244,0.51-0.365,0.883-0.365c0.229,0,0.435,0.053,0.619,0.162c0.183,0.107,0.33,0.27,0.441,0.482
				C329.628,767.086,329.684,767.35,329.684,767.658z"/>
			<path style="fill:#FFFFFF;" d="M345.458,772.133h-5.071c0.007,0.588,0.125,1.107,0.357,1.557
				c0.231,0.451,0.538,0.789,0.921,1.017c0.382,0.229,0.805,0.34,1.267,0.34c0.311,0,0.594-0.035,0.851-0.107
				c0.255-0.074,0.504-0.186,0.746-0.342c0.24-0.154,0.461-0.322,0.665-0.5c0.202-0.178,0.464-0.418,0.788-0.723
				c0.133-0.113,0.323-0.17,0.57-0.17c0.266,0,0.481,0.074,0.646,0.219c0.165,0.146,0.247,0.352,0.247,0.617
				c0,0.234-0.091,0.508-0.275,0.822c-0.184,0.313-0.461,0.613-0.832,0.902c-0.371,0.287-0.835,0.525-1.396,0.717
				c-0.56,0.189-1.205,0.285-1.933,0.285c-1.665,0-2.96-0.477-3.885-1.426c-0.923-0.949-1.386-2.238-1.386-3.865
				c0-0.766,0.114-1.477,0.342-2.131c0.228-0.656,0.561-1.219,0.998-1.688c0.436-0.469,0.975-0.826,1.614-1.078
				c0.639-0.25,1.349-0.373,2.128-0.373c1.013,0,1.881,0.211,2.606,0.641c0.726,0.426,1.269,0.978,1.63,1.656
				c0.36,0.678,0.542,1.369,0.542,2.07c0,0.652-0.187,1.074-0.561,1.27C346.662,772.035,346.136,772.133,345.458,772.133z
				 M340.387,770.66h4.701c-0.063-0.887-0.302-1.551-0.717-1.99c-0.415-0.439-0.961-0.66-1.638-0.66
				c-0.646,0-1.177,0.223-1.592,0.67C340.726,769.125,340.476,769.787,340.387,770.66z"/>
			<path style="fill:#FFFFFF;" d="M356.028,775.285v-0.256c-0.348,0.398-0.691,0.723-1.03,0.973c-0.339,0.25-0.706,0.441-1.102,0.57
				c-0.395,0.131-0.828,0.195-1.296,0.195c-0.622,0-1.196-0.131-1.724-0.395c-0.529-0.262-0.986-0.639-1.373-1.125
				c-0.387-0.488-0.679-1.06-0.878-1.719c-0.2-0.66-0.299-1.371-0.299-2.137c0-1.621,0.396-2.887,1.187-3.791
				s1.833-1.358,3.125-1.358c0.747,0,1.377,0.129,1.89,0.383c0.513,0.258,1.013,0.652,1.5,1.183v-3.828
				c0-0.531,0.106-0.934,0.319-1.205c0.211-0.273,0.515-0.408,0.907-0.408c0.392,0,0.694,0.125,0.907,0.375
				c0.212,0.25,0.318,0.617,0.318,1.106v11.436c0,0.494-0.114,0.865-0.342,1.111c-0.228,0.246-0.522,0.371-0.883,0.371
				c-0.354,0-0.647-0.129-0.879-0.385C356.144,776.125,356.028,775.76,356.028,775.285z M350.928,771.477
				c0,0.703,0.108,1.301,0.327,1.795c0.218,0.494,0.517,0.867,0.898,1.115c0.379,0.252,0.794,0.377,1.243,0.377
				c0.456,0,0.873-0.119,1.249-0.357c0.377-0.236,0.678-0.602,0.902-1.09c0.225-0.492,0.337-1.106,0.337-1.84
				c0-0.69-0.112-1.283-0.337-1.781c-0.224-0.496-0.528-0.877-0.912-1.141c-0.384-0.262-0.803-0.393-1.259-0.393
				c-0.474,0-0.899,0.135-1.272,0.404c-0.373,0.268-0.663,0.654-0.869,1.158C351.03,770.229,350.928,770.813,350.928,771.477z"/>
			<path style="fill:#FFFFFF;" d="M366.626,763.85v3.961c0.487-0.506,0.984-0.894,1.491-1.164c0.506-0.268,1.134-0.402,1.881-0.402
				c0.861,0,1.616,0.203,2.266,0.611c0.648,0.41,1.151,1.002,1.51,1.777c0.358,0.773,0.537,1.695,0.537,2.76
				c0,0.785-0.1,1.504-0.299,2.16c-0.2,0.654-0.49,1.223-0.869,1.703c-0.38,0.482-0.841,0.855-1.382,1.117
				c-0.542,0.264-1.139,0.395-1.791,0.395c-0.399,0-0.775-0.047-1.126-0.143c-0.352-0.096-0.651-0.219-0.898-0.375
				c-0.246-0.154-0.457-0.315-0.631-0.481c-0.174-0.164-0.404-0.412-0.689-0.74v0.256c0,0.488-0.117,0.857-0.352,1.107
				c-0.233,0.25-0.531,0.375-0.893,0.375c-0.367,0-0.66-0.125-0.878-0.375c-0.219-0.25-0.328-0.619-0.328-1.107v-11.322
				c0-0.525,0.106-0.922,0.317-1.191c0.212-0.268,0.509-0.402,0.889-0.402c0.399,0,0.706,0.127,0.921,0.383
				C366.518,763.01,366.626,763.375,366.626,763.85z M366.749,771.553c0,1.033,0.236,1.824,0.708,2.379
				c0.472,0.555,1.091,0.832,1.857,0.832c0.652,0,1.214-0.283,1.685-0.85c0.472-0.568,0.708-1.379,0.708-2.438
				c0-0.684-0.097-1.273-0.294-1.766c-0.197-0.494-0.475-0.877-0.836-1.144c-0.361-0.27-0.783-0.404-1.264-0.404
				c-0.494,0-0.935,0.135-1.32,0.404c-0.386,0.268-0.69,0.658-0.912,1.168C366.86,770.242,366.749,770.85,366.749,771.553z"/>
			<path style="fill:#FFFFFF;" d="M377.672,777.09l0.237-0.58l-3.191-8.035c-0.196-0.461-0.295-0.797-0.295-1.006
				c0-0.223,0.058-0.428,0.171-0.617c0.114-0.19,0.271-0.342,0.47-0.455c0.2-0.115,0.407-0.172,0.622-0.172
				c0.373,0,0.655,0.119,0.846,0.355c0.19,0.238,0.357,0.578,0.503,1.022l2.194,6.383l2.08-5.938
				c0.164-0.478,0.313-0.857,0.446-1.129c0.133-0.274,0.273-0.457,0.422-0.551c0.148-0.096,0.359-0.143,0.632-0.143
				c0.197,0,0.385,0.051,0.565,0.156c0.18,0.105,0.319,0.246,0.418,0.424c0.098,0.176,0.148,0.363,0.148,0.559
				c-0.026,0.121-0.066,0.291-0.124,0.514c-0.058,0.221-0.126,0.447-0.208,0.674l-3.381,8.854c-0.292,0.777-0.577,1.389-0.855,1.832
				c-0.279,0.443-0.647,0.785-1.107,1.021c-0.459,0.238-1.078,0.355-1.857,0.355c-0.759,0-1.33-0.082-1.709-0.246
				c-0.381-0.166-0.57-0.467-0.57-0.902c0-0.297,0.089-0.527,0.271-0.689c0.18-0.16,0.448-0.242,0.801-0.242
				c0.14,0,0.276,0.019,0.409,0.059c0.165,0.037,0.307,0.057,0.427,0.057c0.297,0,0.532-0.045,0.704-0.135
				c0.17-0.088,0.324-0.24,0.461-0.461C377.337,777.836,377.495,777.514,377.672,777.09z"/>
		</g>
		<g>
			<path style="fill:#FFFFFF;" d="M415.234,766.449h0.619v-0.779c0-0.814,0.1-1.457,0.307-1.938
				c0.203-0.479,0.555-0.826,1.047-1.045c0.49-0.217,1.162-0.326,2.016-0.326c1.52,0,2.273,0.367,2.273,1.115
				c0,0.238-0.08,0.443-0.24,0.615c-0.154,0.168-0.344,0.256-0.559,0.256c-0.1,0-0.277-0.02-0.527-0.061
				c-0.236-0.033-0.451-0.055-0.623-0.055c-0.467,0-0.766,0.141-0.904,0.414c-0.127,0.275-0.195,0.67-0.195,1.185v0.617h0.633
				c0.99,0,1.48,0.297,1.48,0.895c0,0.42-0.127,0.691-0.392,0.805c-0.262,0.115-0.623,0.172-1.088,0.172h-0.633v6.871
				c0,0.51-0.121,0.9-0.369,1.168c-0.242,0.272-0.555,0.406-0.943,0.406c-0.367,0-0.67-0.135-0.918-0.406
				c-0.244-0.268-0.363-0.658-0.363-1.168v-6.871h-0.715c-0.389,0-0.682-0.084-0.893-0.262c-0.209-0.172-0.315-0.4-0.315-0.678
				C413.932,766.756,414.365,766.449,415.234,766.449"/>
			<path style="fill:#FFFFFF;" d="M423.725,773.023v2.168c0,0.523-0.133,0.918-0.375,1.18c-0.246,0.266-0.559,0.395-0.938,0.395
				c-0.381,0-0.688-0.131-0.926-0.4c-0.236-0.264-0.361-0.656-0.361-1.174v-7.223c0-1.166,0.42-1.75,1.262-1.75
				c0.434,0,0.742,0.135,0.934,0.408c0.19,0.273,0.295,0.674,0.316,1.209c0.309-0.535,0.625-0.935,0.949-1.209
				c0.332-0.273,0.762-0.408,1.309-0.408c0.549,0,1.072,0.135,1.586,0.408c0.516,0.273,0.772,0.637,0.772,1.086
				c0,0.314-0.111,0.58-0.326,0.781c-0.221,0.209-0.455,0.311-0.707,0.311c-0.1,0-0.33-0.063-0.691-0.18
				c-0.365-0.113-0.689-0.172-0.963-0.172c-0.381,0-0.693,0.102-0.932,0.297c-0.242,0.205-0.432,0.498-0.564,0.887
				c-0.129,0.395-0.219,0.865-0.273,1.404C423.746,771.584,423.725,772.244,423.725,773.023"/>
			<path style="fill:#FFFFFF;" d="M435.645,772.131h-5.074c0.01,0.588,0.125,1.109,0.355,1.559c0.234,0.445,0.539,0.785,0.924,1.016
				c0.385,0.229,0.805,0.34,1.27,0.34c0.311,0,0.592-0.033,0.85-0.111c0.254-0.068,0.504-0.186,0.744-0.34
				c0.242-0.152,0.461-0.318,0.664-0.5c0.203-0.176,0.467-0.416,0.791-0.719c0.135-0.113,0.324-0.174,0.568-0.174
				c0.268,0,0.48,0.074,0.648,0.221c0.166,0.148,0.244,0.352,0.244,0.617c0,0.236-0.09,0.508-0.268,0.82
				c-0.188,0.316-0.463,0.615-0.836,0.906c-0.375,0.285-0.84,0.527-1.398,0.713c-0.559,0.191-1.205,0.287-1.932,0.287
				c-1.67,0-2.963-0.473-3.887-1.422c-0.924-0.953-1.391-2.242-1.391-3.869c0-0.766,0.117-1.479,0.348-2.135
				c0.225-0.658,0.557-1.215,0.998-1.688c0.435-0.471,0.971-0.828,1.613-1.078c0.637-0.248,1.346-0.373,2.127-0.373
				c1.012,0,1.881,0.213,2.607,0.645c0.723,0.424,1.273,0.977,1.629,1.654c0.361,0.682,0.541,1.369,0.541,2.074
				c0,0.648-0.188,1.07-0.561,1.266C436.848,772.033,436.322,772.131,435.645,772.131 M430.57,770.656h4.701
				c-0.062-0.885-0.297-1.551-0.713-1.986c-0.418-0.443-0.959-0.66-1.641-0.66c-0.647,0-1.178,0.219-1.592,0.668
				C430.912,769.125,430.658,769.783,430.57,770.656"/>
			<path style="fill:#FFFFFF;" d="M446.432,772.131h-5.072c0.006,0.588,0.125,1.109,0.354,1.559
				c0.232,0.445,0.539,0.785,0.922,1.016c0.383,0.229,0.805,0.34,1.271,0.34c0.307,0,0.592-0.033,0.844-0.111
				c0.26-0.068,0.506-0.186,0.75-0.34c0.242-0.152,0.461-0.318,0.664-0.5c0.199-0.176,0.465-0.416,0.789-0.719
				c0.135-0.113,0.326-0.174,0.568-0.174c0.268,0,0.482,0.074,0.65,0.221c0.164,0.148,0.24,0.352,0.24,0.617
				c0,0.236-0.088,0.508-0.273,0.82c-0.178,0.316-0.455,0.615-0.83,0.906c-0.371,0.285-0.84,0.527-1.397,0.713
				c-0.557,0.191-1.207,0.287-1.934,0.287c-1.668,0-2.959-0.473-3.887-1.422c-0.924-0.953-1.389-2.242-1.389-3.869
				c0-0.766,0.115-1.479,0.348-2.135c0.227-0.658,0.559-1.215,0.996-1.688c0.436-0.471,0.973-0.828,1.613-1.078
				c0.639-0.248,1.352-0.373,2.129-0.373c1.01,0,1.879,0.213,2.613,0.645c0.721,0.424,1.266,0.977,1.621,1.654
				c0.359,0.682,0.545,1.369,0.545,2.074c0,0.648-0.191,1.07-0.561,1.266C447.633,772.033,447.107,772.131,446.432,772.131
				 M441.359,770.656h4.701c-0.064-0.885-0.305-1.551-0.715-1.986c-0.422-0.443-0.963-0.66-1.643-0.66
				c-0.647,0-1.176,0.219-1.594,0.668C441.697,769.125,441.443,769.783,441.359,770.656"/>
			<path style="fill:#FFFFFF;" d="M452.111,767.678v0.311c0.486-0.6,0.994-1.041,1.525-1.324c0.518-0.283,1.117-0.426,1.781-0.426
				c0.795,0,1.535,0.207,2.207,0.617c0.672,0.414,1.199,1.016,1.59,1.807c0.389,0.795,0.586,1.729,0.586,2.813
				c0,0.797-0.113,1.531-0.336,2.201c-0.225,0.668-0.537,1.227-0.93,1.68c-0.393,0.451-0.855,0.803-1.389,1.047
				c-0.543,0.24-1.111,0.363-1.728,0.363c-0.738,0-1.363-0.148-1.865-0.447c-0.502-0.293-0.982-0.734-1.441-1.307v3.893
				c0,1.137-0.416,1.711-1.244,1.711c-0.49,0-0.809-0.146-0.971-0.439c-0.152-0.299-0.234-0.725-0.234-1.291v-11.193
				c0-0.496,0.107-0.859,0.32-1.107c0.215-0.24,0.512-0.365,0.885-0.365c0.369,0,0.666,0.125,0.897,0.375
				C451.998,766.848,452.111,767.203,452.111,767.678 M457.195,771.445c0-0.684-0.105-1.273-0.314-1.762
				c-0.209-0.492-0.498-0.867-0.865-1.129c-0.367-0.262-0.783-0.396-1.232-0.396c-0.715,0-1.318,0.285-1.809,0.844
				c-0.492,0.566-0.74,1.396-0.74,2.494c0,1.025,0.244,1.832,0.736,2.406c0.486,0.572,1.086,0.858,1.813,0.858
				c0.428,0,0.83-0.125,1.197-0.371c0.371-0.254,0.664-0.627,0.883-1.127C457.084,772.76,457.195,772.154,457.195,771.445"/>
			<path style="fill:#FFFFFF;" d="M462.412,765.012c-0.363,0-0.67-0.113-0.924-0.334c-0.26-0.223-0.387-0.533-0.387-0.938
				c0-0.367,0.131-0.67,0.396-0.91c0.262-0.234,0.566-0.355,0.914-0.355c0.34,0,0.635,0.107,0.893,0.32
				c0.26,0.219,0.391,0.533,0.391,0.945c0,0.4-0.127,0.711-0.377,0.936C463.064,764.898,462.764,765.012,462.412,765.012
				 M463.695,767.691v7.502c0,0.516-0.123,0.908-0.369,1.172c-0.25,0.27-0.561,0.4-0.941,0.4c-0.381,0-0.686-0.135-0.928-0.406
				c-0.234-0.277-0.355-0.666-0.355-1.166v-7.428c0-0.51,0.121-0.895,0.355-1.154c0.242-0.266,0.547-0.393,0.928-0.393
				c0.381,0,0.691,0.127,0.941,0.393C463.572,766.871,463.695,767.232,463.695,767.691"/>
			<path style="fill:#FFFFFF;" d="M472.055,775.582l-2.283-3.766l-1.408,1.328v2.065c0,0.5-0.133,0.883-0.396,1.15
				c-0.258,0.272-0.566,0.406-0.906,0.406c-0.398,0-0.715-0.131-0.941-0.4c-0.227-0.264-0.344-0.656-0.344-1.174v-11.064
				c0-0.572,0.115-1.01,0.332-1.313c0.223-0.305,0.545-0.453,0.953-0.453c0.399,0,0.713,0.137,0.949,0.412
				c0.234,0.27,0.353,0.674,0.353,1.201v6.293l2.916-3.063c0.361-0.375,0.633-0.641,0.826-0.777c0.189-0.139,0.42-0.209,0.689-0.209
				c0.326,0,0.594,0.104,0.816,0.308c0.211,0.207,0.32,0.467,0.32,0.773c0,0.379-0.353,0.889-1.055,1.522l-1.377,1.264l2.658,4.182
				c0.193,0.314,0.34,0.545,0.424,0.707c0.084,0.158,0.131,0.318,0.131,0.461c0,0.414-0.115,0.734-0.342,0.977
				c-0.225,0.236-0.523,0.354-0.885,0.354c-0.316,0-0.564-0.082-0.734-0.256C472.582,776.336,472.346,776.025,472.055,775.582"/>
			<path style="fill:#FFFFFF;" d="M477.691,776.766c-0.393,0-0.728-0.127-1.014-0.381c-0.285-0.25-0.43-0.606-0.43-1.065
				c0-0.387,0.139-0.719,0.41-0.996c0.275-0.279,0.607-0.418,1.008-0.418c0.398,0,0.736,0.139,1.023,0.412
				c0.279,0.275,0.422,0.611,0.422,1.002c0,0.451-0.143,0.807-0.422,1.059C478.402,776.639,478.07,776.766,477.691,776.766"/>
			<path style="fill:#FFFFFF;" d="M490.59,773.555c0,0.32-0.098,0.668-0.291,1.035c-0.191,0.369-0.488,0.717-0.887,1.049
				c-0.395,0.332-0.891,0.604-1.494,0.805c-0.602,0.201-1.281,0.307-2.031,0.307c-1.605,0-2.857-0.471-3.758-1.402
				c-0.895-0.936-1.346-2.19-1.346-3.76c0-1.066,0.205-2.006,0.619-2.824c0.408-0.814,1.004-1.447,1.781-1.893
				c0.779-0.449,1.717-0.67,2.795-0.67c0.674,0,1.287,0.098,1.852,0.295c0.561,0.195,1.033,0.451,1.426,0.758
				c0.387,0.315,0.685,0.644,0.889,0.992c0.207,0.352,0.309,0.682,0.309,0.988c0,0.307-0.113,0.57-0.344,0.787
				c-0.234,0.215-0.516,0.324-0.838,0.324c-0.219,0-0.398-0.057-0.541-0.166c-0.145-0.113-0.305-0.291-0.478-0.543
				c-0.318-0.479-0.647-0.842-0.996-1.078c-0.344-0.244-0.781-0.363-1.315-0.363c-0.762,0-1.383,0.299-1.853,0.898
				c-0.467,0.596-0.703,1.42-0.703,2.453c0,0.488,0.063,0.939,0.184,1.348c0.117,0.408,0.291,0.756,0.52,1.045
				c0.23,0.287,0.504,0.504,0.826,0.654c0.324,0.152,0.682,0.225,1.064,0.225c0.522,0,0.967-0.119,1.336-0.359
				c0.377-0.242,0.703-0.607,0.986-1.103c0.158-0.291,0.328-0.518,0.51-0.684c0.182-0.162,0.408-0.248,0.676-0.248
				c0.316,0,0.58,0.123,0.785,0.361C490.482,773.025,490.59,773.285,490.59,773.555"/>
			<path style="fill:#FFFFFF;" d="M501.779,771.494c0,0.77-0.121,1.484-0.355,2.139c-0.246,0.652-0.592,1.213-1.049,1.68
				c-0.455,0.469-1.002,0.828-1.633,1.08c-0.639,0.246-1.35,0.375-2.139,0.375c-0.785,0-1.492-0.129-2.121-0.383
				c-0.623-0.25-1.17-0.615-1.625-1.082c-0.461-0.477-0.809-1.035-1.053-1.678c-0.228-0.643-0.35-1.354-0.35-2.131
				c0-0.785,0.123-1.506,0.357-2.158c0.242-0.654,0.59-1.211,1.039-1.672c0.451-0.463,0.994-0.818,1.631-1.07
				c0.645-0.25,1.35-0.375,2.121-0.375c0.785,0,1.498,0.125,2.139,0.383c0.639,0.25,1.184,0.613,1.645,1.078
				c0.457,0.475,0.803,1.029,1.039,1.672C501.66,770.004,501.779,770.713,501.779,771.494 M499.176,771.494
				c0-1.059-0.234-1.881-0.697-2.469c-0.463-0.596-1.09-0.887-1.875-0.887c-0.508,0-0.955,0.131-1.342,0.393
				c-0.387,0.262-0.682,0.65-0.891,1.164c-0.209,0.514-0.315,1.113-0.315,1.799c0,0.68,0.102,1.268,0.309,1.773
				c0.209,0.512,0.502,0.898,0.887,1.166c0.385,0.268,0.834,0.404,1.351,0.404c0.785,0,1.412-0.295,1.875-0.891
				C498.941,773.356,499.176,772.535,499.176,771.494"/>
			<path style="fill:#FFFFFF;" d="M511.672,771.685v3.445c0,0.547-0.121,0.951-0.369,1.228c-0.25,0.272-0.572,0.408-0.978,0.408
				c-0.393,0-0.713-0.137-0.951-0.408c-0.246-0.277-0.371-0.682-0.371-1.228V771c0-0.652-0.022-1.162-0.065-1.523
				c-0.045-0.354-0.168-0.656-0.361-0.883c-0.197-0.236-0.51-0.352-0.932-0.352c-0.85,0-1.406,0.289-1.676,0.881
				c-0.268,0.576-0.406,1.412-0.406,2.506v3.502c0,0.539-0.123,0.947-0.361,1.225c-0.25,0.273-0.568,0.412-0.965,0.412
				c-0.397,0-0.717-0.139-0.967-0.412c-0.252-0.277-0.377-0.686-0.377-1.225v-7.418c0-0.49,0.111-0.861,0.336-1.111
				c0.229-0.258,0.525-0.383,0.889-0.383c0.357,0,0.652,0.123,0.893,0.355c0.236,0.238,0.353,0.566,0.353,0.984v0.246
				c0.453-0.535,0.936-0.932,1.445-1.182c0.516-0.26,1.082-0.385,1.713-0.385c0.65,0,1.211,0.131,1.678,0.389
				c0.469,0.262,0.853,0.656,1.16,1.178c0.439-0.529,0.908-0.924,1.41-1.182c0.5-0.256,1.053-0.385,1.662-0.385
				c0.705,0,1.32,0.143,1.834,0.418c0.51,0.279,0.893,0.68,1.147,1.195c0.221,0.473,0.33,1.211,0.33,2.217v5.063
				c0,0.547-0.121,0.951-0.367,1.228c-0.246,0.272-0.574,0.408-0.979,0.408c-0.394,0-0.715-0.139-0.965-0.412
				c-0.25-0.277-0.377-0.686-0.377-1.225v-4.361c0-0.559-0.023-1.002-0.068-1.338c-0.047-0.336-0.178-0.619-0.383-0.846
				c-0.213-0.228-0.531-0.344-0.953-0.344c-0.342,0-0.666,0.106-0.975,0.307c-0.307,0.199-0.547,0.477-0.721,0.813
				C511.77,769.801,511.672,770.574,511.672,771.685"/>
		</g>
		<g>
			<path style="fill:#FFFFFF;" d="M390.967,770.867c-0.002-0.006-0.002-0.01-0.002-0.018
				C390.965,770.857,390.965,770.861,390.967,770.867z"/>
			<path style="fill:#FFFFFF;" d="M391.098,771.695c0.002,0,0.002,0,0.003,0c-0.05-0.236-0.088-0.471-0.119-0.701
				C391.012,771.227,391.051,771.463,391.098,771.695z"/>
			<path style="fill:#FFFFFF;" d="M391.956,774.102c-0.006-0.01-0.011-0.022-0.017-0.033
				C391.945,774.08,391.95,774.092,391.956,774.102z"/>
			<path style="fill:#FFFFFF;" d="M391.874,773.941c-0.022-0.043-0.044-0.09-0.065-0.133
				C391.83,773.856,391.852,773.898,391.874,773.941z"/>
			<path style="fill:#FFFFFF;" d="M391.339,772.623c0.127,0.4,0.28,0.787,0.457,1.158c-0.18-0.379-0.33-0.768-0.454-1.158
				C391.341,772.623,391.34,772.623,391.339,772.623z"/>
			<path style="fill:#FFFFFF;" d="M401.004,760.93c0.502,0,0.871,0.041,1.295,0.111l0.121-0.762c0,0-1.172-0.361-2.711-0.234
				l-0.121-0.416c0.478-0.1,0.838-0.525,0.838-1.033c0-0.582-0.474-1.055-1.057-1.055c-0.583,0-1.056,0.473-1.056,1.055
				c0,0.508,0.358,0.934,0.836,1.033l0.134,0.463c-1.634,0.225-2.935,0.863-2.935,0.863l0.23,0.705
				c0.989-0.33,1.846-0.529,2.624-0.613C399.964,760.965,400.537,760.93,401.004,760.93z"/>
			<path style="fill:#FFFFFF;" d="M391.936,764.789l0.006-0.008c0.039-0.051,0.076-0.098,0.113-0.143l-0.313-0.227l-0.488-0.356
				c-0.027,0.037-0.795,0.744-1.401,2.047c-0.025-0.041-0.056-0.08-0.09-0.119c-0.182-0.197-0.436-0.299-0.758-0.293
				c-0.004,0-0.009,0-0.015,0c-0.2,0-0.337-0.066-0.427-0.148c0.089-0.113,0.143-0.256,0.143-0.412c0-0.369-0.3-0.67-0.669-0.67
				c-0.369,0-0.669,0.301-0.669,0.67c0,0.369,0.3,0.668,0.669,0.668c0.058,0,0.113-0.01,0.167-0.02
				c0.164,0.182,0.425,0.342,0.808,0.334c0.197-0.002,0.341,0.049,0.438,0.154c0.111,0.121,0.148,0.297,0.16,0.428
				c-0.001,0.002-0.001,0.006-0.003,0.006c-0.435,1.189-0.311,2.67-0.311,2.67l1.057,0.041c0.022-0.539,0.099-1.482,0.372-2.231
				C391.25,765.732,391.91,764.826,391.936,764.789z"/>
			<path style="fill:#FFFFFF;" d="M410.203,761.815c-0.367,0-0.668,0.299-0.668,0.668c0,0.059,0.008,0.113,0.023,0.166
				c-0.184,0.166-0.344,0.428-0.338,0.811c0.004,0.197-0.047,0.34-0.154,0.435c-0.084,0.076-0.191,0.115-0.295,0.141
				c-0.787-1.102-1.756-1.775-1.756-1.775l-0.76,0.814c0.574,0.521,1.16,1.174,1.728,1.99c0.395,0.563,0.799,1.289,1.137,2.014
				l1.023-0.486c0,0-0.467-1.154-1.125-2.191c0.113-0.039,0.228-0.102,0.33-0.191c0.201-0.182,0.299-0.438,0.293-0.758
				c-0.002-0.209,0.066-0.35,0.148-0.441c0.115,0.086,0.258,0.142,0.412,0.142c0.371,0,0.67-0.301,0.67-0.67
				C410.873,762.113,410.574,761.815,410.203,761.815z"/>
			<path style="fill:#FFFFFF;" d="M407.547,771.016c-1.41,0.688-3.728,1.594-6.782,2.02c-1.198,0.166-2.359,0.228-3.428,0.228
				c-1.391,0-2.62-0.103-3.563-0.223c-1.076-0.137-1.917-0.303-2.432-0.418c0.124,0.391,0.273,0.779,0.454,1.158
				c0.003,0.01,0.008,0.019,0.013,0.027c0.021,0.043,0.043,0.09,0.065,0.133c0.021,0.045,0.043,0.088,0.065,0.127
				c0.006,0.012,0.011,0.023,0.017,0.033c0.303,0.57,0.667,1.096,1.081,1.549c1.44,1.576,2.907,1.824,2.921,1.826l0.023,0.004
				l0.022,0.008c0.013,0.004,1.314,0.424,3.291,0.424c1.945,0,3.855-0.393,5.673-1.166c1.348-0.69,2.623-1.736,3.254-2.67
				c0.488-0.723,0.842-1.494,1.051-2.295c0.111-0.426,0.199-1.107,0.147-1.824C409.021,770.223,408.395,770.604,407.547,771.016z"/>
			<path style="fill:#FFFFFF;" d="M392.389,765.123c-0.041,0.059-0.652,0.924-1.135,2.252c-0.362,0.996-0.346,2.443-0.346,2.461
				v0.002c0,0.34,0.019,0.678,0.057,1.012c0,0.008,0,0.012,0.002,0.018c0.004,0.043,0.011,0.084,0.015,0.127
				c0.03,0.231,0.069,0.465,0.119,0.701c0.7,0.178,4.878,1.152,9.548,0.502c2.927-0.406,5.15-1.272,6.499-1.926
				c1.121-0.545,1.842-1.037,2.119-1.238c-0.277-1.029-1.041-2.641-1.742-3.646c-2.006-2.865-4.168-3.602-5.277-3.783
				c-0.424-0.07-0.764-0.109-1.244-0.109c-0.447,0-1.001,0.035-1.743,0.113c-0.743,0.078-1.572,0.273-2.532,0.596
				c-1.348,0.451-2.567,1.16-3.527,2.049l-0.033,0.029C393.027,764.412,392.73,764.688,392.389,765.123z M404.658,764.455
				c0.961,0,1.744,0.781,1.744,1.744c0,0.961-0.783,1.744-1.744,1.744c-0.961,0-1.742-0.783-1.742-1.744
				C402.916,765.236,403.697,764.455,404.658,764.455z M396.417,764.387c1.557,0,2.817,1.262,2.817,2.816
				c0,1.557-1.26,2.814-2.817,2.814c-1.555,0-2.816-1.258-2.816-2.814C393.601,765.648,394.862,764.387,396.417,764.387z"/>
		</g>
	</g>
</g>
<g id="Objects">
	<g>
		
			<line style="fill:none;stroke:#FFFFFF;stroke-width:4;stroke-miterlimit:10;stroke-dasharray:12;" x1="401" y1="149.103" x2="401" y2="636.579"/>
		
			<line style="fill:none;stroke:#FFFFFF;stroke-width:4;stroke-miterlimit:10;stroke-dasharray:12;" x1="620.368" y1="252.552" x2="204.164" y2="506.337"/>
		<g>
			<g>
				
					<line style="fill:none;stroke:#FFFFFF;stroke-width:4;stroke-miterlimit:10;" x1="204.163" y1="252.552" x2="209.286" y2="255.675"/>
				
					<line style="fill:none;stroke:#FFFFFF;stroke-width:4;stroke-miterlimit:10;stroke-dasharray:12.1917,12.1917;" x1="219.695" y1="262.022" x2="610.04" y2="500.04"/>
				
					<line style="fill:none;stroke:#FFFFFF;stroke-width:4;stroke-miterlimit:10;" x1="615.244" y1="503.213" x2="620.367" y2="506.337"/>
			</g>
		</g>
		<g>
			<rect x="260.587" y="318.667" style="fill:#E6E7E8;" width="284.826" height="179.576"/>
			<g>
				<g>
					<g style="enable-background:new    ;">
						<defs>
							<polygon id="SVGID_1_" style="enable-background:new    ;" points="232.131,328.86 307.041,254.561 498.959,254.561 
								573.868,328.86 							"/>
						</defs>
						<clipPath id="SVGID_00000085250575966393924690000010953040580514852257_">
							<use xlink:href="#SVGID_1_"  style="overflow:visible;"/>
						</clipPath>
						<g style="clip-path:url(#SVGID_00000085250575966393924690000010953040580514852257_);">
							<polyline style="fill:#EF4136;" points="328.364,254.561 307.041,254.561 232.131,328.86 270.099,328.86 328.364,254.561 
															"/>
							<polyline style="fill:#EF4136;" points="498.959,254.561 477.637,254.561 535.902,328.86 573.868,328.86 498.959,254.561 
															"/>
							<polyline style="fill:#FFD93B;" points="349.69,254.561 328.364,254.561 270.099,328.86 308.074,328.86 349.69,254.561 
															"/>
							<polyline style="fill:#EF4136;" points="371.012,254.561 349.69,254.561 308.074,328.86 346.041,328.86 371.012,254.561 
															"/>
							<polyline style="fill:#FFD93B;" points="392.34,254.561 371.012,254.561 346.041,328.86 384.017,328.86 392.34,254.561 
															"/>
							<polyline style="fill:#EF4136;" points="413.66,254.561 392.34,254.561 384.017,328.86 421.983,328.86 413.66,254.561 
															"/>
							<polyline style="fill:#FFD93B;" points="434.988,254.561 413.66,254.561 421.983,328.86 459.958,328.86 434.988,254.561 
															"/>
							<polyline style="fill:#EF4136;" points="456.31,254.561 434.988,254.561 459.958,328.86 497.927,328.86 456.31,254.561 
															"/>
							<polyline style="fill:#FFD93B;" points="477.637,254.561 456.31,254.561 497.927,328.86 535.902,328.86 477.637,254.561 
															"/>
						</g>
					</g>
				</g>
				<path style="fill:#C10A0A;" d="M232.131,328.86c0,0,2.763,18.734,17.777,18.977c15.362,0.248,20.19-18.977,20.19-18.977H232.131
					z"/>
				<path style="fill:#C10A0A;" d="M308.065,328.86c0,0,2.763,18.734,17.776,18.977c15.363,0.248,20.19-18.977,20.19-18.977H308.065
					z"/>
				<path style="fill:#C10A0A;" d="M384.017,328.86c0,0,2.763,18.734,17.776,18.977c15.362,0.248,20.19-18.977,20.19-18.977H384.017
					z"/>
				<path style="fill:#C10A0A;" d="M459.951,328.86c0,0,2.763,18.734,17.776,18.977c15.362,0.248,20.191-18.977,20.191-18.977
					H459.951z"/>
				<path style="fill:#C10A0A;" d="M535.885,328.86c0,0,2.764,18.734,17.776,18.977c15.362,0.248,20.191-18.977,20.191-18.977
					H535.885z"/>
				<path style="fill:#FFA910;" d="M497.919,328.86c0,0,2.762,18.734,17.775,18.977c15.362,0.248,20.19-18.977,20.19-18.977H497.919
					z"/>
				<path style="fill:#FFA910;" d="M270.099,328.86c0,0,2.763,18.734,17.777,18.977c15.362,0.248,20.19-18.977,20.19-18.977H270.099
					z"/>
				<path style="fill:#FFA910;" d="M346.032,328.86c0,0,2.763,18.734,17.777,18.977C379.172,348.085,384,328.86,384,328.86H346.032z
					"/>
				<path style="fill:#FFA910;" d="M421.984,328.86c0,0,2.762,18.734,17.776,18.977c15.361,0.248,20.191-18.977,20.191-18.977
					H421.984z"/>
			</g>
			<rect x="414.266" y="365.783" style="fill:#00CEBA;" width="104.406" height="72.682"/>
			<g style="opacity:0.3;">
				<defs>
					
						<rect id="SVGID_00000096060819194246473600000013341043268752998079_" x="414.266" y="365.783" style="opacity:0.3;" width="104.406" height="72.682"/>
				</defs>
				<clipPath id="SVGID_00000062159745932216552440000010302273044537491123_">
					<use xlink:href="#SVGID_00000096060819194246473600000013341043268752998079_"  style="overflow:visible;"/>
				</clipPath>
				<polygon style="clip-path:url(#SVGID_00000062159745932216552440000010302273044537491123_);fill:#FFFFFF;" points="
					407.344,430.773 476.564,361.554 505.304,361.554 420.56,446.297 403.883,438.465 				"/>
				<polygon style="clip-path:url(#SVGID_00000062159745932216552440000010302273044537491123_);fill:#FFFFFF;" points="
					425.111,448.079 510.829,362.362 513.866,362.362 426.976,449.252 				"/>
				<path style="clip-path:url(#SVGID_00000062159745932216552440000010302273044537491123_);fill:#FFFFFF;" d="M489.265,444.232
					c0-1.153,37.092-37.093,37.092-37.093l4.61,4.609l-33.516,33.517L489.265,444.232z"/>
				<polygon style="clip-path:url(#SVGID_00000062159745932216552440000010302273044537491123_);fill:#FFFFFF;" points="
					403.883,392.606 432.56,363.929 439.357,363.929 407.138,396.149 				"/>
			</g>
			<g>
				<rect x="292" y="364.931" style="fill:#00CEBA;" width="70.098" height="133.311"/>
				<path style="fill:#FFFFFF;" d="M356.408,430.306c0,2.922-2.369,5.291-5.292,5.291c-2.922,0-5.292-2.369-5.292-5.291
					c0-2.922,2.369-5.291,5.292-5.291C354.039,425.015,356.408,427.384,356.408,430.306z"/>
				<g style="opacity:0.3;">
					<defs>
						<polygon id="SVGID_00000145041523213552458430000008151654679596731029_" style="opacity:0.3;" points="362.098,497.388 
							292,498.242 292,364.931 362.098,364.931 						"/>
					</defs>
					<clipPath id="SVGID_00000177486332870014057760000013134095897102343566_">
						<use xlink:href="#SVGID_00000145041523213552458430000008151654679596731029_"  style="overflow:visible;"/>
					</clipPath>
					<polygon style="clip-path:url(#SVGID_00000177486332870014057760000013134095897102343566_);fill:#FFFFFF;" points="
						252.537,441.856 334.469,359.924 368.487,359.924 268.18,460.23 248.439,450.959 					"/>
					<polygon style="clip-path:url(#SVGID_00000177486332870014057760000013134095897102343566_);fill:#FFFFFF;" points="
						273.568,462.339 375.027,360.88 378.622,360.88 275.774,463.728 					"/>
					<path style="clip-path:url(#SVGID_00000177486332870014057760000013134095897102343566_);fill:#FFFFFF;" d="M321.144,500.46
						c0-1.365,43.905-43.904,43.905-43.904l5.456,5.455l-39.67,39.672L321.144,500.46z"/>
					<polygon style="clip-path:url(#SVGID_00000177486332870014057760000013134095897102343566_);fill:#FFFFFF;" points="
						248.439,396.679 282.384,362.734 290.43,362.734 252.292,400.872 					"/>
				</g>
			</g>
		</g>
		<g>
			<path style="fill:#FFD93B;stroke:#FFFFFF;stroke-width:5;stroke-miterlimit:10;" d="M208.895,532.039
				c0,35.056-28.418,63.475-63.475,63.475c-35.056,0-63.475-28.419-63.475-63.475c0-35.057,28.419-63.474,63.475-63.474
				C180.476,468.565,208.895,496.982,208.895,532.039z"/>
			<g>
				<g>
					<g>
						<g>
							<path style="fill:#F15A29;" d="M144.414,532.041l30.317,30.317c-16.744,16.743-43.891,16.743-60.635,0
								c-16.744-16.744-16.744-43.891,0-60.635c8.372-8.372,18.478-12.558,30.317-12.558V532.041z"/>
						</g>
					</g>
					<g>
						<g>
							<path style="fill:#00CEBA;" d="M144.414,532.041l16.061-39.753c21.955,8.87,32.563,33.859,23.692,55.814
								c-2.217,5.488-5.25,10.069-9.435,14.256L144.414,532.041z"/>
						</g>
					</g>
					<g>
						<g>
							<path style="fill:#FFFFFF;" d="M144.414,532.041v-42.875c5.92,0,10.573,0.904,16.061,3.122L144.414,532.041z"/>
						</g>
					</g>
				</g>
				<g>
					<g>
					</g>
					<g>
					</g>
					<g>
					</g>
				</g>
			</g>
		</g>
		<g>
			<path style="fill:#FFD93B;stroke:#FFFFFF;stroke-width:5;stroke-miterlimit:10;" d="M722.055,532.039
				c0,35.056-28.42,63.475-63.475,63.475c-35.057,0-63.475-28.419-63.475-63.475c0-35.057,28.418-63.474,63.475-63.474
				C693.635,468.565,722.055,496.982,722.055,532.039z"/>
			<g>
				<path style="fill:#00CEBA;" d="M692.084,552.622c0,1.851-1.5,3.351-3.351,3.351h-60.306c-1.851,0-3.351-1.5-3.351-3.351v-41.166
					c0-1.85,1.5-3.35,3.351-3.35h60.306c1.851,0,3.351,1.5,3.351,3.35V552.622z"/>
				<path style="fill:#FFD93B;" d="M688.733,557.648h-60.306c-2.771,0-5.025-2.254-5.025-5.025v-41.166
					c0-2.77,2.254-5.025,5.025-5.025h60.306c2.771,0,5.025,2.256,5.025,5.025v41.166
					C693.759,555.394,691.504,557.648,688.733,557.648z M628.428,509.781c-0.924,0-1.675,0.752-1.675,1.675v41.166
					c0,0.924,0.751,1.675,1.675,1.675h60.306c0.924,0,1.675-0.751,1.675-1.675v-41.166c0-0.923-0.751-1.675-1.675-1.675H628.428z"/>
			</g>
			<g>
				<polygon style="fill:#FFD93B;" points="658.592,540.928 625.979,510.69 628.563,507.906 658.568,535.727 688.925,507.08 
					691.532,509.843 				"/>
			</g>
			<g>
				
					<rect x="677.567" y="524.828" transform="matrix(0.7631 -0.6463 0.6463 0.7631 -188.9805 567.4526)" style="fill:#FFD93B;" width="3.799" height="33.302"/>
			</g>
		</g>
		<g>
			
				<rect x="620.438" y="541.367" transform="matrix(0.6463 -0.763 0.763 0.6463 -189.2262 678.2601)" style="fill:#FFD93B;" width="33.303" height="3.798"/>
		</g>
		<g>
			<path style="fill:#FFD93B;stroke:#FFFFFF;stroke-width:5;stroke-miterlimit:10;" d="M464.476,662.843
				c0,35.057-28.419,63.477-63.476,63.477c-35.055,0-63.474-28.42-63.474-63.477c0-35.056,28.419-63.474,63.474-63.474
				C436.057,599.369,464.476,627.787,464.476,662.843z"/>
			<g>
				<g>
					<path style="fill:#FF9700;" d="M388.357,692.747l0.065-1.351c0.006-0.124,0.546-12.427-3.671-17.205
						c-0.649-0.735-1.312-1.439-1.969-2.139c-4.053-4.31-8.245-8.767-8.635-19.613c-0.222-6.143,2.243-12.35,6.76-17.033
						c4.832-5.009,11.37-7.768,18.407-7.768h0.142c7.111,0,13.661,2.73,18.443,7.688c4.496,4.661,6.947,10.898,6.723,17.113
						c-0.391,10.847-4.582,15.303-8.635,19.613c-0.659,0.699-1.32,1.403-1.97,2.139c-4.225,4.786-3.679,17.081-3.672,17.205
						l0.064,1.351l-11.025,0.063L388.357,692.747z"/>
					<path style="fill:#FFD93B;" d="M399.455,628.934c14.212,0,24.305,11.396,23.872,23.458
						c-0.435,12.083-5.66,15.708-10.282,20.942c-4.621,5.237-3.994,18.126-3.994,18.126l-9.667,0.054l-9.667-0.054
						c0,0,0.628-12.889-3.994-18.126c-4.622-5.234-9.847-8.859-10.282-20.942c-0.434-12.062,9.972-23.459,23.873-23.458
						c0.023,0,0.047,0,0.07,0C399.408,628.934,399.431,628.934,399.455,628.934 M399.455,626.343h-0.079h-0.063
						c-7.392,0-14.259,2.898-19.337,8.163c-4.762,4.935-7.358,11.49-7.126,17.979c0.408,11.334,4.77,15.972,8.987,20.455
						c0.644,0.685,1.31,1.395,1.942,2.109c3.204,3.63,3.498,13.212,3.349,16.283l-0.132,2.702l2.707,0.016l9.667,0.055l9.695-0.055
						l2.707-0.016l-0.134-2.702c-0.155-3.296,0.141-12.648,3.349-16.283c0.634-0.715,1.299-1.425,1.943-2.109
						c4.218-4.483,8.579-9.121,8.987-20.455c0.235-6.565-2.347-13.146-7.086-18.06C413.803,629.213,406.921,626.343,399.455,626.343
						L399.455,626.343z"/>
				</g>
				<g>
					<line style="fill:none;stroke:#FFFFFF;stroke-miterlimit:10;" x1="395.216" y1="691.691" x2="391.788" y2="669.271"/>
					<line style="fill:none;stroke:#FFFFFF;stroke-miterlimit:10;" x1="403.552" y1="691.691" x2="406.979" y2="669.271"/>
				</g>
				<path style="fill:none;stroke:#FFFFFF;stroke-miterlimit:10;" d="M392.077,671.166c0,0,0.391,0.649,1.425,1.303
					c1.034,0.653,1.35-2.01,2.764-2.096c1.882-0.115,1.657,1.613,2.495,2.17c1.067,0.711,1.822,0.19,2.367-0.898
					c0.544-1.087,1.679-1.893,2.755-0.652c1.205,1.391,1.266,2.244,2.696,0.901"/>
				<rect x="389.838" y="686.885" style="fill:#00CEBA;" width="19.333" height="9.688"/>
				<polygon style="fill:#00CEBA;" points="394.773,696.531 396.71,699.346 402.219,699.346 404.235,696.412 				"/>
			</g>
		</g>
		<g>
			
				<ellipse transform="matrix(0.9924 -0.1229 0.1229 0.9924 -27.0813 19.4906)" style="fill:#FFD93B;stroke:#FFFFFF;stroke-width:5;stroke-miterlimit:10;" cx="144.42" cy="229.224" rx="63.475" ry="63.474"/>
			<g>
				<g>
					<polygon style="fill:#00CEBA;" points="108.127,250.133 127.196,250.133 127.196,227.08 108.127,235.094 					"/>
					<polygon style="fill:#FF9700;" points="144.619,233.12 143.656,232.493 132.151,224.997 131.036,225.465 131.036,250.133 
						150.105,250.133 150.105,231.051 145.695,232.714 					"/>
					<polygon style="fill:#FFFFFF;" points="167.469,229.633 166.263,225.893 165.994,225.058 153.945,229.602 153.945,250.133 
						173.015,250.133 173.015,223.501 170.105,226.718 					"/>
				</g>
				<polygon style="fill:#F15A29;" points="103.219,223.897 133.154,211.315 145.818,219.566 164.02,212.7 162.605,208.315 
					179.62,211.971 167.946,224.877 166.709,221.039 144.757,229.319 132.266,221.182 106.609,231.964 				"/>
			</g>
		</g>
		<g>
			<path style="fill:#FFD93B;stroke:#FFFFFF;stroke-width:5;stroke-miterlimit:10;" d="M464.476,101.556
				c0,35.056-28.419,63.475-63.476,63.475c-35.055,0-63.474-28.419-63.474-63.475c0-35.056,28.419-63.474,63.474-63.474
				C436.057,38.082,464.476,66.499,464.476,101.556z"/>
			<g>
				<g>
					<path style="fill:#00CEBA;" d="M427.094,123.483h-45.53l-9.543-40.374h-9.894c-1.293,0-2.341-1.048-2.341-2.341
						c0-1.293,1.048-2.341,2.341-2.341h13.598l9.543,40.374h41.826c1.294,0,2.342,1.048,2.342,2.341
						S428.388,123.483,427.094,123.483z"/>
				</g>
				<g>
					<polygon style="fill:#FFFFFF;" points="376.04,89.935 433.426,89.935 429.02,111.782 381.203,111.782 					"/>
					<path style="fill:#00CEBA;" d="M430.936,114.123h-51.586l-6.27-26.53h63.205L430.936,114.123z M383.055,109.441h44.049
						l3.461-17.165h-51.568L383.055,109.441z"/>
				</g>
				<g>
					<path style="fill:#00CEBA;" d="M394.427,132.521c0,3.04-2.465,5.506-5.506,5.506c-3.04,0-5.505-2.465-5.505-5.506
						c0-3.04,2.465-5.505,5.505-5.505C391.961,127.016,394.427,129.481,394.427,132.521z"/>
				</g>
				<g>
					<path style="fill:#00CEBA;" d="M426.177,132.521c0,3.04-2.466,5.506-5.506,5.506c-3.041,0-5.506-2.465-5.506-5.506
						c0-3.04,2.465-5.505,5.506-5.505C423.711,127.016,426.177,129.481,426.177,132.521z"/>
				</g>
			</g>
		</g>
		<g>
			<path style="fill:#FFD93B;stroke:#FFFFFF;stroke-width:5;stroke-miterlimit:10;" d="M721.056,229.224
				c0,35.057-28.42,63.475-63.476,63.475c-35.057,0-63.475-28.418-63.475-63.475c0-35.056,28.418-63.474,63.475-63.474
				C692.636,165.75,721.056,194.168,721.056,229.224z"/>
			<g>
				<path style="fill:#EF4136;" d="M684.808,250.72c0,3.166-2.566,5.732-5.732,5.732h-42.99c-3.166,0-5.733-2.566-5.733-5.732
					v-42.99c0-3.166,2.566-5.732,5.733-5.732h42.99c3.166,0,5.732,2.566,5.732,5.732V250.72z"/>
				<polygon style="fill:#FFFFFF;" points="644.803,213.008 672.89,229.225 644.803,245.441 				"/>
			</g>
		</g>
	</g>
</g>
</svg>
